<svg width="92" height="32" viewBox="0 0 92 32" fill="none" xmlns="http://www.w3.org/2000/svg">
<rect width="92" height="32" rx="16" fill="#B9D58C"/>
<path d="M44.8105 9.83008H43.0605V15.5859H40.8047V16.6387H43.0605V17.0352H44.8105V9.83008ZM34.2695 14.2051L34.4473 15.4082C35.3496 15.415 36.3271 15.415 37.3457 15.3877V17.0625H39.0684V15.3262C40.1758 15.2646 41.3037 15.1689 42.4043 15.0254L42.3223 13.9453C39.6562 14.1982 36.6758 14.2119 34.2695 14.2051ZM35.1172 11.8672C35.1172 13.0225 36.375 13.7334 38.2754 13.7266C40.1279 13.7334 41.3994 13.0225 41.4062 11.8672C41.3994 10.7461 40.1279 10.001 38.2754 9.99414C36.375 10.001 35.1172 10.7461 35.1172 11.8672ZM36.0469 18.5801H43.0742V19.1953H36.1016V22.1758H45.0977V20.959H37.8105V20.3164H44.8105V17.4043H36.0469V18.5801ZM36.7715 11.8672C36.7578 11.4092 37.332 11.1357 38.2754 11.1426C39.1914 11.1357 39.7725 11.4092 39.7793 11.8672C39.7725 12.3252 39.1914 12.585 38.2754 12.5918C37.332 12.585 36.7578 12.3252 36.7715 11.8672ZM49.4453 16.8984H47.7363V22.1211H56.3496V16.8984H54.627V18.2246H49.4453V16.8984ZM46.3691 16.0781H57.7578V14.6836H56.1104C56.4111 13.2686 56.4111 12.2637 56.4043 11.3203V10.3223H47.7637V11.7168H54.668C54.6543 12.5508 54.6201 13.4805 54.3809 14.6836H46.3691V16.0781ZM49.4453 20.7129V19.5508H54.627V20.7129H49.4453Z" fill="#FCFCFC"/>
</svg>
