<svg width="92" height="32" viewBox="0 0 92 32" fill="none" xmlns="http://www.w3.org/2000/svg">
<rect width="92" height="32" rx="16" fill="#E6D267"/>
<path d="M45.6172 15.709H43.0059V14.2324C43.9355 13.8359 44.4619 13.2139 44.4688 12.4004C44.4619 10.8965 42.6914 10.001 39.9434 9.99414C37.1748 10.001 35.4043 10.8965 35.4043 12.4004C35.4043 13.2002 35.917 13.8154 36.8262 14.2188V15.709H34.2695V17.1035H45.6172V15.709ZM35.5684 19.9883C35.5684 21.458 37.2021 22.2441 39.9297 22.2441C42.6162 22.2441 44.25 21.458 44.2637 19.9883C44.25 18.5527 42.6162 17.7529 39.9297 17.7598C37.2021 17.7529 35.5684 18.5527 35.5684 19.9883ZM37.2227 12.4004C37.209 11.7031 38.1865 11.334 39.9434 11.334C41.6797 11.334 42.6641 11.7031 42.6641 12.4004C42.6641 13.084 41.6797 13.4326 39.9434 13.4258C38.1865 13.4326 37.209 13.084 37.2227 12.4004ZM37.3457 19.9883C37.3389 19.373 38.207 19.0791 39.9297 19.0723C41.6182 19.0791 42.5068 19.373 42.5137 19.9883C42.5068 20.624 41.6182 20.9453 39.9297 20.9453C38.207 20.9453 37.3389 20.624 37.3457 19.9883ZM38.5898 15.709V14.6631C39.0068 14.7109 39.458 14.7383 39.9434 14.7383C40.415 14.7383 40.8594 14.7178 41.2695 14.6631V15.709H38.5898ZM57.7441 16.1602H52.9316V14.9434H56.5V13.5488H49.4863V11.8125H56.377V10.418H47.75V14.9434H51.168V16.1602H46.3691V17.541H57.7441V16.1602ZM47.7363 22.0391H56.5684V20.6445H49.459V18.4023H47.7363V22.0391Z" fill="#FCFCFC"/>
</svg>
