<svg width="92" height="32" viewBox="0 0 92 32" fill="none" xmlns="http://www.w3.org/2000/svg">
<rect width="92" height="32" rx="16" fill="#4CB8B8"/>
<path d="M24.125 16.8711H22.4023V19.4004H19.5723V20.8086H30.9609V19.4004H28.1172V16.8711H26.3809V19.4004H24.125V16.8711ZM19.8457 15.3125L20.543 16.7617C22.7305 16.3926 24.3643 15.251 25.1914 13.7471C26.0049 15.251 27.6387 16.3789 29.8535 16.7617L30.5508 15.3125C27.7207 14.8955 26.1143 13.0977 26.1211 11.4023V10.5H24.2617V11.4023C24.248 13.0771 22.6484 14.8818 19.8457 15.3125ZM38.9727 10.7598H32.2051V12.1543H33.2168V15.374C32.7451 15.3809 32.2939 15.3809 31.877 15.3809L32.0684 16.7891C34.1328 16.7891 37.0449 16.7412 39.5742 16.2969L39.4512 15.0117C38.9658 15.0732 38.46 15.1279 37.9473 15.1689V12.1543H38.9727V10.7598ZM33.5859 19.8926C33.5859 21.3965 35.2061 22.2646 37.8652 22.2578C40.5312 22.2646 42.165 21.3965 42.1719 19.8926C42.165 18.4023 40.5312 17.5615 37.8652 17.5684C35.2061 17.5615 33.5859 18.4023 33.5859 19.8926ZM34.8848 15.3398V12.1543H36.2656V15.2852C35.8008 15.3057 35.3359 15.3262 34.8848 15.3398ZM35.3223 19.8926C35.3223 19.2295 36.1973 18.8877 37.8652 18.8945C39.54 18.8877 40.415 19.2295 40.4219 19.8926C40.415 20.583 39.54 20.9316 37.8652 20.9316C36.1973 20.9316 35.3223 20.583 35.3223 19.8926ZM40.3398 17.3359H42.0898V9.83008H40.3398V17.3359ZM48.4746 10.6367H46.7246L43.5391 22.4902H45.2754L48.4746 10.6367ZM60.3418 16.8574H48.9531V18.2656H51.5098V22.2578H53.3008V18.2656H56.0215V22.2578H57.7715V18.2656H60.3418V16.8574ZM50.293 15.6816H58.9883V10.2812H57.2383V11.6621H52.0156V10.2812H50.293V15.6816ZM52.0156 14.3008V13.0293H57.2383V14.3008H52.0156ZM68.0801 10.8418H61.75V19.4277H62.8164C65.0654 19.4277 66.8496 19.373 68.8047 19.0859L68.6406 17.6777C66.8975 17.9443 65.3799 18.0195 63.4727 18.0332V15.6816H67.5605V14.3145H63.4727V12.2637H68.0801V10.8418ZM69.7617 22.2578H71.5254V9.81641H69.7617V22.2578Z" fill="#FCFCFC"/>
</svg>
