<svg width="92" height="32" viewBox="0 0 92 32" fill="none" xmlns="http://www.w3.org/2000/svg">
<rect width="92" height="32" rx="16" fill="#6ED5EB"/>
<path d="M23.6055 10.6504C21.6436 10.6436 20.1396 11.915 20.1465 13.6992C20.1396 15.4902 21.6436 16.7549 23.6055 16.7617C25.5811 16.7549 27.0439 15.4902 27.0508 13.6992C27.0439 11.915 25.5811 10.6436 23.6055 10.6504ZM19.627 18.3203L19.832 19.7422C22.0059 19.7422 24.959 19.7217 27.7207 19.1816L27.584 17.9238C24.9248 18.2998 21.8486 18.3271 19.627 18.3203ZM21.8828 13.6992C21.876 12.7285 22.6211 12.1543 23.6055 12.1543C24.5967 12.1543 25.3486 12.7285 25.3555 13.6992C25.3486 14.6836 24.5967 15.251 23.6055 15.2441C22.6211 15.251 21.876 14.6836 21.8828 13.6992ZM28.2949 22.2852H30.0312V9.81641H28.2949V22.2852ZM43.0605 19.4414H40.2715V17.541H42.0352V16.1328H34.7344V14.752H41.748V10.623H32.9707V12.0176H40.0254V13.3574H32.9844V17.541H34.584V19.4414H31.6719V20.877H43.0605V19.4414ZM36.2793 19.4414V17.541H38.5625V19.4414H36.2793ZM48.4746 10.6367H46.7246L43.5391 22.4902H45.2754L48.4746 10.6367ZM59.4531 9.83008H57.7168V13.4258H55.4883V14.8613H57.7168V18.9219H59.4531V9.83008ZM49.1309 16.2969L49.8418 17.6777C53.4785 16.5498 55.5977 14.082 55.5977 10.7461H49.7734V12.168H53.6973C53.376 14 51.708 15.4902 49.1309 16.2969ZM51.25 22.0391H59.7676V20.6445H53.0273V18.0059H51.25V22.0391ZM70.9375 9.81641H69.1875V17.0352H70.9375V14.1641H72.6191V12.7422H70.9375V9.81641ZM60.9844 15.9004L61.6816 17.3086C65.3867 16.2764 67.4717 13.9521 67.4648 10.6367H61.5723V12.0312H65.5645C65.291 13.7539 63.7256 15.1758 60.9844 15.9004ZM62.666 19.7285C62.6523 21.3008 64.3477 22.2715 66.877 22.2715C69.4131 22.2715 71.0674 21.3008 71.0742 19.7285C71.0674 18.1699 69.4131 17.1855 66.877 17.1855C64.3477 17.1855 62.6523 18.1699 62.666 19.7285ZM64.3887 19.7285C64.3818 18.9629 65.3115 18.5391 66.877 18.5391C68.4219 18.5391 69.3516 18.9629 69.3516 19.7285C69.3516 20.4805 68.4219 20.9111 66.877 20.9043C65.3115 20.9111 64.3818 20.4805 64.3887 19.7285Z" fill="#FCFCFC"/>
</svg>
