<svg width="92" height="32" viewBox="0 0 92 32" fill="none" xmlns="http://www.w3.org/2000/svg">
<rect width="92" height="32" rx="16" fill="#4CA1DE"/>
<path d="M39.041 11.5801V10.3906H37.2227V11.5801C37.2227 13.166 36.3066 14.7861 34.2285 15.4492L35.1035 16.8164C36.5664 16.3447 37.5781 15.374 38.1387 14.1504C38.6924 15.2852 39.6768 16.1738 41.0918 16.625L41.9668 15.2578C39.916 14.6426 39.0273 13.1318 39.041 11.5801ZM36.1289 19.168H42.9375V22.2578H44.6875V17.7734H36.1289V19.168ZM42.9375 17.2402H44.6875V9.81641H42.9375V17.2402ZM56.7871 9.81641H55.0234V22.2852H56.7871V9.81641ZM46.9844 19.373H53.1367V10.8008H51.4141V13.8359H48.7344V10.8008H46.9844V19.373ZM48.7344 17.9648V15.1895H51.4141V17.9648H48.7344Z" fill="#FCFCFC"/>
</svg>
