<svg width="92" height="32" viewBox="0 0 92 32" fill="none" xmlns="http://www.w3.org/2000/svg">
<rect width="92" height="32" rx="16" fill="#4A6CC3"/>
<path d="M38.248 12.0312V10.5684H36.5527V12.0312C36.5527 13.4189 35.8486 14.9502 34.0918 15.7227L35.0352 17.0625C36.1973 16.5771 36.9766 15.6816 37.4277 14.6084C37.8721 15.5244 38.6035 16.2627 39.6699 16.666L40.5996 15.3398C38.9453 14.7041 38.248 13.3779 38.248 12.0312ZM36.4023 19.9336C36.3955 21.376 38.0703 22.2646 40.709 22.2578C43.334 22.2646 45.0156 21.376 45.0293 19.9336C45.0156 18.4775 43.334 17.6025 40.709 17.6094C38.0703 17.6025 36.3955 18.4775 36.4023 19.9336ZM38.1523 19.9336C38.1387 19.2568 39.0752 18.9082 40.709 18.9082C42.3291 18.9082 43.2656 19.2568 43.2656 19.9336C43.2656 20.6035 42.3291 20.9453 40.709 20.9453C39.0752 20.9453 38.1387 20.6035 38.1523 19.9336ZM40.6406 17.0488H42.2676V14.2734H43.3066V17.4316H44.9609V9.83008H43.3066V12.8652H42.2676V10.0488H40.6406V17.0488ZM56.3223 9.81641H54.5723V17.1445H56.3223V14.2051H57.9082V12.7559H56.3223V9.81641ZM46.2324 15.8047L46.4102 17.0078C48.584 17.0078 51.4688 16.9873 54.1211 16.543L53.998 15.4629C53.0342 15.5859 52.0156 15.668 50.9902 15.7227V15.2305C52.3301 15.0596 53.1572 14.499 53.1641 13.6172C53.1572 12.6055 51.9609 12.0107 50.1152 12.0176C48.2559 12.0107 47.0596 12.6055 47.0664 13.6172C47.0596 14.5059 47.8936 15.0664 49.2539 15.2373V15.7842C48.1738 15.8047 47.1416 15.8047 46.2324 15.8047ZM46.5605 11.7578H53.6836V10.5957H50.9902V9.70703H49.2539V10.5957H46.5605V11.7578ZM47.8867 18.7441H54.5723V19.3184H47.9004V22.1758H56.7324V21.0137H49.6504V20.3711H56.3223V17.582H47.8867V18.7441ZM48.7344 13.6172C48.7275 13.2549 49.2266 13.0977 50.1152 13.0977C50.9902 13.0977 51.4893 13.2549 51.4961 13.6172C51.4893 13.9932 50.9902 14.1846 50.1152 14.1914C49.2266 14.1846 48.7275 13.9932 48.7344 13.6172Z" fill="#FCFCFC"/>
</svg>
