<svg width="92" height="32" viewBox="0 0 92 32" fill="none" xmlns="http://www.w3.org/2000/svg">
<rect width="92" height="32" rx="16" fill="#E2B765"/>
<path d="M32.6289 9.81641H30.8652V22.2578H32.6289V9.81641ZM22.2109 18.7305L23.127 20.125C27.5703 18.0264 28.8896 14.8887 28.8965 11.1152H22.8809V12.4824H27.1191C26.8389 15.2441 25.4238 17.2129 22.2109 18.7305ZM40.6543 10.8418H34.7617V19.4277H35.8145C37.9883 19.4277 39.6836 19.373 41.584 19.0859L41.4199 17.6777C39.7588 17.9375 38.3027 18.0127 36.5254 18.0332V15.6816H40.4766V14.3145H36.5254V12.2637H40.6543V10.8418ZM42.3359 22.2578H44.0859V15.9961H45.918V14.5332H44.0859V9.81641H42.3359V22.2578ZM52.9727 10.7871V10.1855H51.1406V10.7871C51.1338 12.2568 49.6367 13.877 46.8066 14.2324L47.5039 15.6406C49.6504 15.3262 51.2363 14.3145 52.0566 12.9746C52.8701 14.3213 54.4629 15.3262 56.6367 15.6406L57.3203 14.2324C54.4697 13.877 52.9658 12.2568 52.9727 10.7871ZM46.3691 18.0059H51.1543V22.2578H52.877V18.0059H57.7168V16.584H46.3691V18.0059ZM68.8867 9.81641H67.1367V16.502H68.8867V9.81641ZM58.6602 13.2891C58.6602 14.9844 60.123 16.2012 62.0645 16.2012C63.999 16.2012 65.4619 14.9844 65.4688 13.2891C65.4619 11.5391 63.999 10.3223 62.0645 10.3359C60.123 10.3223 58.6602 11.5391 58.6602 13.2891ZM60.3691 13.2891C60.3555 12.3525 61.0664 11.7783 62.0645 11.7852C63.0352 11.7783 63.7393 12.3525 63.7461 13.2891C63.7393 14.2119 63.0352 14.7656 62.0645 14.7656C61.0664 14.7656 60.3555 14.2119 60.3691 13.2891ZM60.5605 22.1211H68.8867V17.0488H67.1504V18.2109H62.2832V17.0488H60.5605V22.1211ZM62.2832 20.7129V19.5645H67.1504V20.7129H62.2832Z" fill="#FCFCFC"/>
</svg>
