<svg width="92" height="32" viewBox="0 0 92 32" fill="none" xmlns="http://www.w3.org/2000/svg">
<rect width="92" height="32" rx="16" fill="#817DCE"/>
<path d="M34.8506 10.9375H28.835V19.291H34.8506V10.9375ZM30.585 17.9102V12.3047H33.1553V17.9102H30.585ZM36.874 22.2852H38.6377V9.81641H36.874V22.2852ZM51.6943 16.2012H40.3057V17.5684H45.2822V19.5781H47.0049V17.5684H51.6943V16.2012ZM41.6455 22.0391H50.4365V20.6445H43.3682V18.5938H41.6455V22.0391ZM41.7686 15.3262H50.2178V10.2129H48.4814V11.5117H43.4912V10.2129H41.7686V15.3262ZM43.4912 13.9453V12.8105H48.4814V13.9453H43.4912ZM63.7939 17.1172H52.4053V18.4844H55.0713V22.2578H56.8076V18.4844H59.4053V22.2578H61.1689V18.4844H63.7939V17.1172ZM53.7178 11.6074H60.6904V12.5371H53.7588V16.2148H62.7686V14.8203H55.5225V13.8086H62.4814V10.1855H53.7178V11.6074Z" fill="#FCFCFC"/>
</svg>
