<svg width="92" height="32" viewBox="0 0 92 32" fill="none" xmlns="http://www.w3.org/2000/svg">
<rect width="92" height="32" rx="16" fill="#94D3CC"/>
<path d="M44.5918 10.8965H35.3906V12.2773H42.8418C42.835 13.7197 42.8213 15.4082 42.418 17.6914L44.127 17.8418C44.585 15.333 44.585 13.6309 44.5918 12.1133V10.8965ZM34.2695 20.7402H45.6172V19.3184H41.5156V15.4082H39.793V19.3184H38.4258V15.4082H36.6895V19.3184H34.2695V20.7402ZM57.7168 16.2285H52.9043V15.4629H56.5V14.123H49.5137V13.4121H56.1035V12.1543H49.5137V11.457H56.3906V10.1172H47.7637V15.4629H51.1543V16.2285H46.3418V17.5957H57.7168V16.2285ZM47.668 20.207C47.668 21.5469 49.2402 22.2646 52.0293 22.2578C54.7705 22.2646 56.3496 21.5469 56.3633 20.207C56.3496 18.8945 54.7705 18.1562 52.0293 18.1699C49.2402 18.1562 47.668 18.8945 47.668 20.207ZM49.418 20.207C49.4043 19.6875 50.2383 19.4482 52.0293 19.4551C53.7793 19.4482 54.6064 19.6875 54.6133 20.207C54.6064 20.7402 53.7793 20.9727 52.0293 20.9727C50.2383 20.9727 49.4043 20.7402 49.418 20.207Z" fill="#FCFCFC"/>
</svg>
