<svg width="92" height="32" viewBox="0 0 92 32" fill="none" xmlns="http://www.w3.org/2000/svg">
<rect width="92" height="32" rx="16" fill="#D092E2"/>
<path d="M30.9473 15.9688H19.5586V17.3496H24.5352V19.4961H26.2578V17.3496H30.9473V15.9688ZM20.8984 22.0391H29.6895V20.6445H22.6348V18.416H20.8984V22.0391ZM20.9805 14.9434H29.4844V10.3633H20.9805V14.9434ZM22.6895 13.5898V11.7168H27.7754V13.5898H22.6895ZM41.625 9.81641H39.8613V22.2578H41.625V16.3242H43.252V14.875H41.625V9.81641ZM31.5215 18.7441L31.7539 20.166C33.8525 20.1729 36.71 20.1523 39.3555 19.6602L39.2461 18.3887C38.3232 18.5186 37.332 18.6006 36.3477 18.6553V17.6504C37.6602 17.3975 38.5352 16.5498 38.5488 15.3945C38.5352 14.0068 37.2637 13.0566 35.4863 13.0566C33.6748 13.0566 32.417 14.0068 32.4238 15.3945C32.417 16.5498 33.2783 17.3906 34.5977 17.6504V18.7168C33.4902 18.7441 32.4307 18.7441 31.5215 18.7441ZM31.7676 12.5645H39.1504V11.1973H36.3477V9.88477H34.5977V11.1973H31.7676V12.5645ZM34.0781 15.3945C34.0713 14.752 34.6318 14.3896 35.4863 14.3828C36.3135 14.3896 36.8672 14.752 36.8672 15.3945C36.8672 16.0508 36.3135 16.4062 35.4863 16.4062C34.6318 16.4062 34.0713 16.0508 34.0781 15.3945ZM48.4746 10.6367H46.7246L43.5391 22.4902H45.2754L48.4746 10.6367ZM52.3984 10.6914C50.5117 10.6914 49.1582 12.4072 49.1719 15.1211C49.1582 17.8555 50.5117 19.5645 52.3984 19.5645C53.6016 19.5645 54.5928 18.8535 55.1465 17.623H57.7441V22.2852H59.4668V9.81641H57.7441V12.373H55.0166C54.4492 11.2998 53.5195 10.6914 52.3984 10.6914ZM50.8398 15.1211C50.833 13.2754 51.4688 12.2637 52.3984 12.2637C53.335 12.2637 53.957 13.2754 53.957 15.1211C53.957 16.9736 53.335 17.9854 52.3984 17.9785C51.4688 17.9854 50.833 16.9736 50.8398 15.1211ZM55.502 13.7812H57.7441V16.2285H55.543C55.5977 15.8799 55.625 15.5107 55.625 15.1211C55.625 14.6426 55.584 14.1914 55.502 13.7812ZM70.8828 9.81641H69.1328V22.2305H70.8828V16.0234H72.6465V14.5879H70.8828V9.81641ZM60.9297 18.7441L61.9141 20.084C66.0977 18.0264 67.5469 14.8066 67.5605 11.0879H61.6406V12.5098H65.79C65.4619 15.2852 63.876 17.2676 60.9297 18.7441Z" fill="#FCFCFC"/>
</svg>
