<svg width="132" height="24" fill="none" xmlns="http://www.w3.org/2000/svg"><path d="M6.216 21 .768 4.344h2.256l4.32 13.584h-.648l4.248-13.584h1.632l4.248 13.584H16.2l4.32-13.584h2.232L17.328 21H15.72L11.448 7.44h.624L7.824 21H6.216Zm18.947 0V9.6h2.16V21h-2.16Zm1.08-13.68c-.4 0-.728-.128-.984-.384a1.415 1.415 0 0 1-.384-1.008c0-.384.128-.704.384-.96.256-.272.584-.408.984-.408s.728.136.984.408c.256.256.384.576.384.96 0 .4-.128.736-.384 1.008-.256.256-.584.384-.984.384Zm7.887 13.92c-.64 0-1.248-.08-1.824-.24a6.599 6.599 0 0 1-1.56-.72 5.616 5.616 0 0 1-1.248-1.128l1.392-1.392a4.1 4.1 0 0 0 1.44 1.152c.544.24 1.152.36 1.824.36.672 0 1.192-.112 1.56-.336.368-.24.552-.568.552-.984 0-.416-.152-.736-.456-.96-.288-.24-.664-.432-1.128-.576a23.7 23.7 0 0 0-1.488-.456c-.512-.16-1-.36-1.464-.6a3.263 3.263 0 0 1-1.152-.984c-.288-.416-.432-.968-.432-1.656s.168-1.28.504-1.776a3.24 3.24 0 0 1 1.392-1.176c.608-.272 1.336-.408 2.184-.408.896 0 1.688.16 2.376.48.704.304 1.28.768 1.728 1.392l-1.392 1.392a3.197 3.197 0 0 0-1.2-.96c-.464-.224-.992-.336-1.584-.336-.624 0-1.104.112-1.44.336a.999.999 0 0 0-.48.888c0 .384.144.68.432.888.288.208.664.384 1.128.528.48.144.976.296 1.488.456.512.144 1 .344 1.464.6.464.256.84.6 1.128 1.032.304.432.456 1 .456 1.704 0 1.072-.384 1.92-1.152 2.544-.752.624-1.768.936-3.048.936Zm11.898 0c-1.136 0-2.16-.256-3.072-.768a5.885 5.885 0 0 1-2.16-2.136c-.528-.896-.792-1.912-.792-3.048 0-1.12.256-2.128.768-3.024a5.811 5.811 0 0 1 2.112-2.112c.896-.528 1.896-.792 3-.792 1.056 0 1.984.24 2.784.72a4.943 4.943 0 0 1 1.896 1.992c.464.848.696 1.808.696 2.88 0 .16-.008.336-.024.528a6.032 6.032 0 0 1-.096.624h-9.624v-1.8h8.472l-.792.696c0-.768-.136-1.416-.408-1.944a2.906 2.906 0 0 0-1.152-1.248c-.496-.304-1.096-.456-1.8-.456-.736 0-1.384.16-1.944.48-.56.32-.992.768-1.296 1.344-.304.576-.456 1.256-.456 2.04 0 .8.16 1.504.48 2.112a3.47 3.47 0 0 0 1.368 1.392c.592.32 1.272.48 2.04.48.64 0 1.224-.112 1.752-.336a3.628 3.628 0 0 0 1.392-1.008l1.392 1.416a5.294 5.294 0 0 1-2.016 1.464 6.329 6.329 0 0 1-2.52.504ZM63.216 21 57.768 4.344h2.256l4.32 13.584h-.648l4.248-13.584h1.632l4.248 13.584H73.2l4.32-13.584h2.232L74.328 21H72.72L68.448 7.44h.624L64.824 21h-1.608Zm22.013.24c-1.04 0-1.984-.256-2.832-.768a5.75 5.75 0 0 1-2.016-2.136c-.48-.896-.72-1.904-.72-3.024s.24-2.128.72-3.024a5.817 5.817 0 0 1 1.992-2.136c.848-.528 1.8-.792 2.856-.792.864 0 1.632.184 2.304.552.688.352 1.24.848 1.656 1.488.416.624.648 1.352.696 2.184v3.432c-.048.816-.28 1.544-.696 2.184-.4.64-.944 1.144-1.632 1.512-.672.352-1.448.528-2.328.528Zm.36-2.04c1.072 0 1.936-.36 2.592-1.08.656-.736.984-1.672.984-2.808 0-.784-.152-1.464-.456-2.04a3.138 3.138 0 0 0-1.248-1.368c-.544-.336-1.176-.504-1.896-.504s-1.36.168-1.92.504c-.544.336-.976.8-1.296 1.392-.304.576-.456 1.24-.456 1.992 0 .768.152 1.448.456 2.04.32.576.76 1.032 1.32 1.368.56.336 1.2.504 1.92.504ZM89.02 21v-3.072l.408-2.784-.408-2.76V9.6h2.184V21H89.02Zm5.329 0V3.864h2.16V21h-2.16Zm5.32 0V3.864h2.16V21h-2.16Zm10.6.24c-1.136 0-2.16-.256-3.072-.768a5.885 5.885 0 0 1-2.16-2.136c-.528-.896-.792-1.912-.792-3.048 0-1.12.256-2.128.768-3.024a5.811 5.811 0 0 1 2.112-2.112c.896-.528 1.896-.792 3-.792 1.056 0 1.984.24 2.784.72a4.943 4.943 0 0 1 1.896 1.992c.464.848.696 1.808.696 2.88 0 .16-.008.336-.024.528a6.032 6.032 0 0 1-.096.624h-9.624v-1.8h8.472l-.792.696c0-.768-.136-1.416-.408-1.944a2.906 2.906 0 0 0-1.152-1.248c-.496-.304-1.096-.456-1.8-.456-.736 0-1.384.16-1.944.48-.56.32-.992.768-1.296 1.344-.304.576-.456 1.256-.456 2.04 0 .8.16 1.504.48 2.112a3.47 3.47 0 0 0 1.368 1.392c.592.32 1.272.48 2.04.48.64 0 1.224-.112 1.752-.336a3.628 3.628 0 0 0 1.392-1.008l1.392 1.416a5.294 5.294 0 0 1-2.016 1.464 6.329 6.329 0 0 1-2.52.504Zm8.988-.24V4.824h2.16V21h-2.16Zm-2.808-9.432V9.6h7.776v1.968h-7.776Z" fill="#FCFCFC"/></svg>